<svg width="20" height="20" viewBox="0 0 20 20" fill="none" xmlns="http://www.w3.org/2000/svg">
<path d="M15.8337 8.33334V10C15.8337 11.5471 15.2191 13.0308 14.1251 14.1248C13.0312 15.2188 11.5474 15.8333 10.0003 15.8333M10.0003 15.8333C8.45323 15.8333 6.9695 15.2188 5.87554 14.1248C4.78157 13.0308 4.16699 11.5471 4.16699 10V8.33334M10.0003 15.8333V19.1667M6.66699 19.1667H13.3337M10.0003 0.833344C9.33728 0.833344 8.7014 1.09674 8.23256 1.56558C7.76372 2.03442 7.50033 2.6703 7.50033 3.33334V10C7.50033 10.6631 7.76372 11.2989 8.23256 11.7678C8.7014 12.2366 9.33728 12.5 10.0003 12.5C10.6634 12.5 11.2993 12.2366 11.7681 11.7678C12.2369 11.2989 12.5003 10.6631 12.5003 10V3.33334C12.5003 2.6703 12.2369 2.03442 11.7681 1.56558C11.2993 1.09674 10.6634 0.833344 10.0003 0.833344Z" stroke="white" stroke-linecap="round" stroke-linejoin="round"/>
</svg>
